<!-- by TradingView --><svg width="18" height="18" fill="none" xmlns="http://www.w3.org/2000/svg"><path fill="#1F226B" d="M0 0h18v18H0z"/><path d="M6.314 12c1.32 0 2.232-.824 2.232-2.037v-.009c0-1.093-.792-1.884-1.888-1.884-.584 0-1.06.237-1.3.627h-.024l.14-1.632h2.724V6.1H4.514L4.25 9.504h1.052c.068-.12.16-.233.276-.321.196-.157.448-.245.744-.245.624 0 1.068.43 1.072 1.04v.009c0 .618-.444 1.053-1.076 1.053-.556 0-.96-.338-1.044-.776l-.008-.028H4.15l.004.06c.072.969.904 1.704 2.16 1.704ZM11.498 12c1.464 0 2.352-1.153 2.352-2.998v-.008C13.85 7.149 12.962 6 11.498 6S9.146 7.15 9.146 8.994v.008c0 1.845.888 2.998 2.352 2.998Zm0-.973c-.72 0-1.132-.751-1.132-2.025v-.008c0-1.274.412-2.021 1.132-2.021s1.132.747 1.132 2.021v.008c0 1.274-.412 2.025-1.132 2.025Z" fill="#fff"/></svg>